<svg width="24" height="24" viewBox="0 0 24 24" fill="none" xmlns="http://www.w3.org/2000/svg">
<path d="M9.16013 10.87C9.06013 10.86 8.94013 10.86 8.83013 10.87C6.45013 10.79 4.56013 8.84 4.56013 6.44C4.56013 3.99 6.54013 2 9.00013 2C11.4501 2 13.4401 3.99 13.4401 6.44C13.4301 8.84 11.5401 10.79 9.16013 10.87Z" stroke="#22E41E" stroke-width="2.625" stroke-linecap="round" stroke-linejoin="round"/>
<path d="M16.4098 4C18.3498 4 19.9098 5.57 19.9098 7.5C19.9098 9.39 18.4098 10.93 16.5398 11C16.4598 10.99 16.3698 10.99 16.2798 11" stroke="#22E41E" stroke-width="2.625" stroke-linecap="round" stroke-linejoin="round"/>
<path d="M4.16029 14.56C1.74029 16.18 1.74029 18.82 4.16029 20.43C6.91029 22.27 11.4203 22.27 14.1703 20.43C16.5903 18.81 16.5903 16.17 14.1703 14.56C11.4303 12.73 6.92029 12.73 4.16029 14.56Z" stroke="#22E41E" stroke-width="2.625" stroke-linecap="round" stroke-linejoin="round"/>
<path d="M18.3398 20C19.0598 19.85 19.7398 19.56 20.2998 19.13C21.8598 17.96 21.8598 16.03 20.2998 14.86C19.7498 14.44 19.0798 14.16 18.3698 14" stroke="#22E41E" stroke-width="2.625" stroke-linecap="round" stroke-linejoin="round"/>
</svg>
