<svg width="47" height="43" viewBox="0 0 47 43" fill="none" xmlns="http://www.w3.org/2000/svg">
<path d="M47.6791 15.2982L12.9683 11.1264L10.8524 2.41856C10.7788 2.12651 10.6193 1.86862 10.3982 1.68426C10.177 1.4999 9.90641 1.39921 9.62763 1.39756H4.41697C4.22864 1.12221 3.98417 0.897979 3.7027 0.742427C3.42124 0.586875 3.11043 0.504233 2.79464 0.500977C2.23993 0.500977 1.70795 0.74031 1.31571 1.16633C0.92348 1.59234 0.703125 2.17014 0.703125 2.77262C0.703125 3.3751 0.92348 3.9529 1.31571 4.37892C1.70795 4.80494 2.23993 5.04427 2.79464 5.04427C3.4685 5.04427 4.03792 4.67832 4.42034 4.14403H8.65221L17.463 40.3733C16.5019 41.4844 15.9659 42.951 15.9637 44.4756C15.963 45.2669 16.106 46.0506 16.3844 46.7818C16.6629 47.5131 17.0713 48.1775 17.5864 48.7371C18.1015 49.2968 18.7132 49.7406 19.3863 50.0433C20.0595 50.3459 20.781 50.5015 21.5096 50.501C22.9816 50.5015 24.3937 49.867 25.4352 48.7372C26.4767 47.6073 27.0626 46.0744 27.0639 44.4756C27.061 44.0173 27.0084 43.561 26.9072 43.1161H36.2285C36.1288 43.5612 36.0768 44.0174 36.0735 44.4756C36.0735 47.8057 38.5601 50.501 41.6261 50.501C44.6922 50.501 47.1737 47.8057 47.1737 44.4756C47.1742 42.8764 46.5898 41.3425 45.5492 40.2112C44.5086 39.0799 43.0968 38.4438 41.6245 38.4429C40.024 38.4429 38.5921 39.1931 37.5779 40.3696H25.5561C25.0402 39.763 24.4145 39.2788 23.7181 38.9472C23.0218 38.6157 22.2699 38.444 21.5096 38.4429C20.8694 38.4429 20.2663 38.5856 19.6952 38.8015L19.3886 37.5463H43.956C44.9002 37.5253 45.8104 37.1603 46.5406 36.5099C47.2708 35.8595 47.7786 34.9615 47.9824 33.96L50.6357 19.6915C50.6805 19.4419 50.703 19.1882 50.7031 18.934C50.7044 18.0282 50.3956 17.1543 49.8367 16.4821C49.2779 15.8098 48.5089 15.389 47.6791 15.2982ZM41.6278 45.0135C41.4958 45.0131 41.3693 44.9562 41.2757 44.8551C41.1821 44.7541 41.1288 44.6171 41.1275 44.4737C41.1325 44.17 41.3549 43.9285 41.6295 43.9285C41.9041 43.9285 42.1265 44.17 42.1299 44.4719C42.1281 44.6149 42.0747 44.7515 41.9811 44.8521C41.8875 44.9527 41.7612 45.0094 41.6295 45.0099L41.6278 45.0135ZM44.6265 31.2995L46.2236 29.5612L45.6879 32.4522L44.6265 31.2995ZM20.2781 14.7639L22.0217 16.6632L19.8485 19.0236L17.6702 16.6632L19.5015 14.6725L20.2764 14.7639H20.2781ZM27.8557 15.6752L28.7621 16.6632L26.5888 19.0236L24.4106 16.6632L25.5696 15.4007L27.8557 15.6752ZM15.0135 19.5469L16.4792 17.9587L18.6524 20.3228L16.4792 22.6831L15.5273 21.653L15.0152 19.5451L15.0135 19.5469ZM14.5165 17.4976L13.964 15.2287L15.2864 16.6651L14.5165 17.4976ZM35.499 23.9823L33.3258 26.3427L31.1475 23.9823L33.3241 21.6164L35.4973 23.9804L35.499 23.9823ZM34.5169 20.3228L36.6935 17.9587L38.8667 20.3228L36.6935 22.6868L34.5152 20.3228H34.5169ZM29.9565 22.6831L27.7782 20.3228L29.9548 17.9569L32.128 20.3209L29.9548 22.6813L29.9565 22.6831ZM28.7604 23.9823L26.5872 26.3427L24.4106 23.9823L26.5872 21.6164L28.7604 23.9823ZM23.2178 22.6831L21.0396 20.3228L23.2161 17.9569L25.3894 20.3209L23.2161 22.6813L23.2178 22.6831ZM22.0217 23.9823L19.8485 26.3427L17.6702 23.9823L19.8468 21.6164L22.02 23.9804L22.0217 23.9823ZM16.4792 25.2759L18.6524 27.64L17.3316 29.0727L16.4219 25.3326L16.4775 25.2723L16.4792 25.2759ZM17.8303 31.1257L19.8468 28.9354L22.02 31.2995L19.8468 33.6599L17.9431 31.5922L17.8286 31.1238L17.8303 31.1257ZM21.0412 27.64L23.2145 25.2741L25.3927 27.6381L23.2195 29.9985L21.0429 27.6381L21.0412 27.64ZM26.5872 28.9336L28.7637 31.2977L26.5872 33.658L24.4106 31.2977L26.5872 28.9336ZM27.7799 27.6381L29.9565 25.2723L32.1297 27.6363L29.9565 29.9967L27.7799 27.6381ZM33.3224 28.9318L35.5007 31.2958L33.3275 33.6562L31.1509 31.2922L33.3241 28.9318H33.3224ZM34.5186 27.6363L36.6918 25.2704L38.87 27.6345L36.6968 29.9949L34.5186 27.6363ZM37.8879 23.9768L40.0611 21.6109L42.2394 23.975L40.0661 26.3353L37.8879 23.9768ZM41.2572 20.3173L43.4304 17.9514L45.607 20.3228L43.4338 22.6868L41.2555 20.3209L41.2572 20.3173ZM40.0611 19.0218L38.1153 16.9066L41.6228 17.3274L40.0628 19.0218H40.0611ZM35.5024 16.6632L33.3292 19.0273L31.1509 16.6632L31.6395 16.1326L35.435 16.59L35.5024 16.6632ZM23.2212 15.3641L22.9651 15.0896L23.425 15.1445L23.2229 15.3641H23.2212ZM16.4825 15.3678L15.3875 14.1784L17.3586 14.4163L16.4825 15.3678ZM23.2212 32.595L25.2512 34.7998H21.1912L23.2212 32.595ZM29.9599 32.595L31.9899 34.8016H27.9265L29.9582 32.595H29.9599ZM36.6985 32.595L38.7319 34.8035H34.6651L36.6968 32.595H36.6985ZM37.8896 31.2995L40.0661 28.9336L42.2394 31.2977L40.0661 33.658L37.8879 31.2977L37.8896 31.2995ZM41.2589 27.64L43.4355 25.2759L45.6087 27.6363L43.4355 30.0022L41.2572 27.6418L41.2589 27.64ZM46.8048 26.3408L44.6282 23.9804L46.8014 21.6164L47.5511 22.4288L46.8267 26.3152L46.8031 26.3427L46.8048 26.3408ZM47.6471 18.1069L46.8048 19.0218L45.6929 17.8196L47.4062 18.0246C47.4972 18.0392 47.5747 18.0722 47.6488 18.1051L47.6471 18.1069ZM21.5129 45.0117C21.3855 45.0037 21.2657 44.943 21.178 44.8421C21.0904 44.7413 21.0416 44.6079 21.0416 44.4692C21.0416 44.3305 21.0904 44.1971 21.178 44.0962C21.2657 43.9954 21.3855 43.9347 21.5129 43.9267C21.64 43.9347 21.7594 43.9951 21.8467 44.0957C21.934 44.1962 21.9826 44.3291 21.9826 44.4673C21.9826 44.6055 21.934 44.7385 21.8467 44.839C21.7594 44.9395 21.64 45 21.5129 45.008V45.0117ZM43.9577 34.8016H41.4021L43.4355 32.5931L45.0022 34.2948C44.6872 34.6059 44.2896 34.8254 43.9577 34.8016Z" fill="#22E41E"/>
</svg>
