<svg width="20" height="20" viewBox="0 0 20 20" fill="none" xmlns="http://www.w3.org/2000/svg">
<circle cx="10" cy="10" r="9.5" fill="white" stroke="#FF800C"/>
<path d="M11.4917 9.99997C11.4917 10.825 10.825 11.4916 10 11.4916C9.17503 11.4916 8.50836 10.825 8.50836 9.99997C8.50836 9.17497 9.17503 8.5083 10 8.5083C10.825 8.5083 11.4917 9.17497 11.4917 9.99997Z" stroke="#FF800C" stroke-width="1.5" stroke-linecap="round" stroke-linejoin="round"/>
<path d="M10 13.4459C11.4708 13.4459 12.8417 12.5792 13.7958 11.0792C14.1708 10.4917 14.1708 9.50422 13.7958 8.91672C12.8417 7.41672 11.4708 6.55005 10 6.55005C8.52916 6.55005 7.15833 7.41672 6.20416 8.91672C5.82916 9.50422 5.82916 10.4917 6.20416 11.0792C7.15833 12.5792 8.52916 13.4459 10 13.4459Z" stroke="#FF800C" stroke-width="1.5" stroke-linecap="round" stroke-linejoin="round"/>
</svg>
