<svg width="47" height="43" viewBox="0 0 47 43" fill="none" xmlns="http://www.w3.org/2000/svg">
<path d="M52.3768 16.778L14.1948 12.1889L11.8673 2.61032C11.7864 2.28906 11.6109 2.00538 11.3677 1.80259C11.1244 1.5998 10.8267 1.48904 10.5201 1.48722H4.78835C4.58119 1.18434 4.31227 0.937679 4.00266 0.766572C3.69305 0.595465 3.35116 0.504559 3.00379 0.500977C2.39361 0.500977 1.80843 0.764243 1.37697 1.23286C0.945516 1.70148 0.703125 2.33706 0.703125 2.99979C0.703125 3.66251 0.945516 4.2981 1.37697 4.76671C1.80843 5.23533 2.39361 5.4986 3.00379 5.4986C3.74504 5.4986 4.3714 5.09605 4.79206 4.50833H9.44712L19.139 44.3605C18.0818 45.5828 17.4922 47.196 17.4897 48.873C17.489 49.7435 17.6463 50.6056 17.9526 51.4099C18.2589 52.2143 18.7082 52.9452 19.2748 53.5608C19.8414 54.1763 20.5142 54.6646 21.2547 54.9975C21.9951 55.3304 22.7888 55.5015 23.5902 55.501C25.2095 55.5015 26.7627 54.8036 27.9084 53.5608C29.0541 52.3179 29.6985 50.6318 29.7 48.873C29.6968 48.3689 29.639 47.867 29.5276 47.3776H39.781C39.6713 47.8673 39.6141 48.3691 39.6105 48.873C39.6105 52.5362 42.3458 55.501 45.7185 55.501C49.0912 55.501 51.8208 52.5362 51.8208 48.873C51.8213 47.114 51.1785 45.4267 50.0338 44.1822C48.8891 42.9378 47.3362 42.2381 45.7166 42.2371C43.9561 42.2371 42.381 43.0623 41.2654 44.3565H28.0414C27.4739 43.6892 26.7856 43.1566 26.0196 42.7918C25.2536 42.4271 24.4266 42.2383 23.5902 42.2371C22.886 42.2371 22.2226 42.394 21.5944 42.6316L21.2571 41.2508H48.2813C49.3199 41.2278 50.3212 40.8263 51.1244 40.1108C51.9276 39.3954 52.4862 38.4075 52.7103 37.3058L55.629 21.6105C55.6782 21.336 55.703 21.057 55.7031 20.7773C55.7045 19.781 55.3648 18.8196 54.7501 18.0802C54.1354 17.3407 53.2894 16.8778 52.3768 16.778ZM45.7203 49.4648C45.5751 49.4643 45.436 49.4017 45.333 49.2905C45.23 49.1794 45.1714 49.0287 45.1699 48.871C45.1755 48.5369 45.4201 48.2712 45.7222 48.2712C46.0242 48.2712 46.2688 48.5369 46.2725 48.869C46.2706 49.0263 46.2118 49.1765 46.1089 49.2872C46.0059 49.3979 45.867 49.4602 45.7222 49.4608L45.7203 49.4648ZM49.0189 34.3793L50.7756 32.4672L50.1863 35.6474L49.0189 34.3793ZM22.2356 16.1902L24.1536 18.2795L21.763 20.8759L19.3669 18.2795L21.3813 16.0896L22.2337 16.1902H22.2356ZM30.571 17.1926L31.5679 18.2795L29.1774 20.8759L26.7813 18.2795L28.0563 16.8907L30.571 17.1926ZM16.4445 21.4515L18.0568 19.7045L20.4473 22.3049L18.0568 24.9014L17.0098 23.7682L16.4464 21.4495L16.4445 21.4515ZM15.8979 19.1973L15.29 16.7015L16.7448 18.2815L15.8979 19.1973ZM38.9786 26.3304L36.5881 28.9268L34.192 26.3304L36.5862 23.7279L38.9768 26.3284L38.9786 26.3304ZM37.8982 22.3049L40.2925 19.7045L42.683 22.3049L40.2925 24.9054L37.8964 22.3049H37.8982ZM32.8818 24.9014L30.4857 22.3049L32.88 19.7025L35.2705 22.3029L32.88 24.8994L32.8818 24.9014ZM31.5661 26.3304L29.1756 28.9268L26.7813 26.3304L29.1756 23.7279L31.5661 26.3304ZM25.4693 24.9014L23.0732 22.3049L25.4674 19.7025L27.858 22.3029L25.4674 24.8994L25.4693 24.9014ZM24.1536 26.3304L21.763 28.9268L19.3669 26.3304L21.7612 23.7279L24.1517 26.3284L24.1536 26.3304ZM18.0568 27.7534L20.4473 30.3539L18.9945 31.9298L17.9938 27.8158L18.0549 27.7494L18.0568 27.7534ZM19.543 34.1881L21.7612 31.7789L24.1517 34.3793L21.7612 36.9758L19.6671 34.7014L19.5411 34.1861L19.543 34.1881ZM23.075 30.3539L25.4656 27.7514L27.8617 30.3518L25.4711 32.9483L23.0769 30.3518L23.075 30.3539ZM29.1756 31.7769L31.5698 34.3773L29.1756 36.9738L26.7813 34.3773L29.1756 31.7769ZM30.4876 30.3518L32.8818 27.7494L35.2724 30.3498L32.8818 32.9463L30.4876 30.3518ZM36.5844 31.7749L38.9805 34.3753L36.5899 36.9717L34.1957 34.3713L36.5862 31.7749H36.5844ZM37.9001 30.3498L40.2906 27.7474L42.6867 30.3478L40.2962 32.9443L37.9001 30.3498ZM41.6064 26.3244L43.9969 23.7219L46.393 26.3224L44.0025 28.9188L41.6064 26.3244ZM45.3126 22.2989L47.7032 19.6964L50.0974 22.3049L47.7069 24.9054L45.3108 22.3029L45.3126 22.2989ZM43.9969 20.8739L41.8565 18.5472L45.7147 19.0101L43.9987 20.8739H43.9969ZM38.9823 18.2795L36.5918 20.8799L34.1957 18.2795L34.7331 17.6958L38.9082 18.199L38.9823 18.2795ZM25.473 16.8504L25.1913 16.5485L25.6972 16.6089L25.4749 16.8504H25.473ZM18.0605 16.8544L16.8559 15.5462L19.0241 15.8078L18.0605 16.8544ZM25.473 35.8044L27.706 38.2297H23.24L25.473 35.8044ZM32.8855 35.8044L35.1185 38.2317H30.6488L32.8837 35.8044H32.8855ZM40.298 35.8044L42.5348 38.2337H38.0613L40.2962 35.8044H40.298ZM41.6082 34.3793L44.0025 31.7769L46.393 34.3773L44.0025 36.9738L41.6064 34.3773L41.6082 34.3793ZM45.3145 30.3539L47.7087 27.7534L50.0993 30.3498L47.7087 32.9523L45.3126 30.3559L45.3145 30.3539ZM51.415 28.9248L49.0207 26.3284L51.4113 23.7279L52.2359 24.6216L51.4391 28.8966L51.4131 28.9268L51.415 28.9248ZM52.3415 19.8675L51.415 20.8739L50.1919 19.5515L52.0765 19.7769C52.1766 19.793 52.2619 19.8293 52.3434 19.8655L52.3415 19.8675ZM23.5939 49.4628C23.4537 49.4539 23.3219 49.3872 23.2255 49.2763C23.1292 49.1653 23.0755 49.0185 23.0755 48.866C23.0755 48.7135 23.1292 48.5667 23.2255 48.4557C23.3219 48.3448 23.4537 48.2781 23.5939 48.2692C23.7336 48.2781 23.865 48.3446 23.961 48.4551C24.0571 48.5657 24.1106 48.712 24.1106 48.864C24.1106 49.016 24.0571 49.1623 23.961 49.2728C23.865 49.3834 23.7336 49.4499 23.5939 49.4587V49.4628ZM48.2832 38.2317H45.472L47.7087 35.8023L49.4321 37.6742C49.0856 38.0163 48.6483 38.2579 48.2832 38.2317Z" fill="#22E41E"/>
</svg>
