<svg width="33" height="33" viewBox="0 0 33 33" fill="none" xmlns="http://www.w3.org/2000/svg">
<path d="M22.7209 11.078C21.1136 9.4707 19.5395 9.42927 17.8908 11.078L16.8883 12.0805C16.8054 12.1633 16.7723 12.2959 16.8054 12.4119C17.4351 14.6074 19.1915 16.3638 21.387 16.9934C21.4202 17.0017 21.4533 17.01 21.4864 17.01C21.5776 17.01 21.6604 16.9769 21.7267 16.9106L22.7209 15.9081C23.5411 15.0962 23.9388 14.3091 23.9388 13.5138C23.9471 12.6936 23.5494 11.8982 22.7209 11.078Z" fill="#9197B3"/>
<path d="M19.8953 17.7462C19.6551 17.6302 19.4231 17.5142 19.1994 17.3816C19.0171 17.2739 18.8431 17.158 18.6691 17.0337C18.5283 16.9425 18.3626 16.81 18.2052 16.6774C18.1886 16.6691 18.1306 16.6194 18.0643 16.5531C17.7909 16.3212 17.4844 16.0229 17.211 15.6915C17.1861 15.6749 17.1447 15.6169 17.0867 15.5424C17.0039 15.4429 16.863 15.2772 16.7387 15.0867C16.6393 14.9624 16.5233 14.7801 16.4156 14.5979C16.2831 14.3742 16.1671 14.1505 16.0511 13.9185C16.0335 13.8809 16.0165 13.8435 16.0001 13.8063C15.8779 13.5301 15.5177 13.4494 15.3042 13.6629L10.5582 18.409C10.4505 18.5167 10.351 18.7238 10.3262 18.8647L9.87881 22.0378C9.79596 22.6012 9.95337 23.1314 10.3013 23.4877C10.5996 23.7776 11.0138 23.9351 11.4612 23.9351C11.5607 23.9351 11.6601 23.9268 11.7595 23.9102L14.9409 23.4628C15.0901 23.438 15.2972 23.3385 15.3966 23.2308L20.1367 18.4908C20.3517 18.2757 20.2706 17.9067 19.9909 17.7873C19.9594 17.7739 19.9276 17.7601 19.8953 17.7462Z" fill="#9197B3"/>
<rect x="0.704082" y="0.704082" width="30.9796" height="30.9796" rx="2.11225" stroke="#808EA7" stroke-width="1.40816"/>
</svg>
