<svg width="24" height="28" viewBox="0 0 24 28" fill="none" xmlns="http://www.w3.org/2000/svg">
<path d="M9 25.364H15C20 25.364 22 23.0986 22 17.4351V10.6389C22 4.97537 20 2.70996 15 2.70996H9C4 2.70996 2 4.97537 2 10.6389V17.4351C2 23.0986 4 25.364 9 25.364Z" stroke="white" stroke-width="1.5" stroke-linecap="round" stroke-linejoin="round"/>
<path d="M16.28 15.8607C15.15 17.1407 13.53 17.5371 12.1 17.0274L9.51001 19.9498C9.33001 20.165 8.96001 20.3009 8.69001 20.2556L7.49001 20.0744C7.09001 20.0177 6.73001 19.5873 6.67001 19.1456L6.51001 17.7863C6.47001 17.4918 6.60001 17.0727 6.78001 16.8575L9.36001 13.9351C8.92001 12.3154 9.26001 10.4804 10.39 9.20045C12.01 7.36547 14.65 7.36547 16.28 9.20045C17.9 11.0241 17.9 14.0144 16.28 15.8607Z" stroke="white" stroke-width="1.5" stroke-miterlimit="10" stroke-linecap="round" stroke-linejoin="round"/>
<path d="M10.45 18.8843L9.59998 17.9102" stroke="white" stroke-width="1.5" stroke-miterlimit="10" stroke-linecap="round" stroke-linejoin="round"/>
<path d="M13.3945 12.5645H13.4035" stroke="white" stroke-width="2" stroke-linecap="round" stroke-linejoin="round"/>
</svg>
