<svg width="24" height="25" viewBox="0 0 24 25" fill="none" xmlns="http://www.w3.org/2000/svg">
<path d="M9 22.4443H15C20 22.4443 22 20.4443 22 15.4443V9.44434C22 4.44434 20 2.44434 15 2.44434H9C4 2.44434 2 4.44434 2 9.44434V15.4443C2 20.4443 4 22.4443 9 22.4443Z" stroke="white" stroke-width="1.5" stroke-linecap="round" stroke-linejoin="round"/>
<path d="M16.28 14.054C15.15 15.184 13.53 15.534 12.1 15.084L9.51001 17.664C9.33001 17.854 8.96001 17.974 8.69001 17.934L7.49001 17.774C7.09001 17.724 6.73001 17.344 6.67001 16.954L6.51001 15.754C6.47001 15.494 6.60001 15.124 6.78001 14.934L9.36001 12.354C8.92001 10.924 9.26001 9.30398 10.39 8.17398C12.01 6.55398 14.65 6.55398 16.28 8.17398C17.9 9.78398 17.9 12.424 16.28 14.054Z" stroke="white" stroke-width="1.5" stroke-miterlimit="10" stroke-linecap="round" stroke-linejoin="round"/>
<path d="M10.45 16.7243L9.59998 15.8643" stroke="white" stroke-width="1.5" stroke-miterlimit="10" stroke-linecap="round" stroke-linejoin="round"/>
<path d="M13.3945 11.1445H13.4035" stroke="white" stroke-width="2" stroke-linecap="round" stroke-linejoin="round"/>
</svg>
