<svg width="50" height="50" viewBox="0 0 50 50" fill="none" xmlns="http://www.w3.org/2000/svg">
<circle cx="25" cy="25" r="23.5" stroke="#22E41E" stroke-width="3"/>
<path d="M24.9923 15C30.4778 15 35 18.7179 35 23.3178C35 25.6357 34.0082 27.7876 32.3759 29.6116C30.5751 31.6235 28.3555 33.3765 25.8571 34.7524C25.2853 35.0704 24.7693 35.0944 24.1417 34.7524C21.6291 33.3765 19.4095 31.6235 17.6241 29.6116C15.9906 27.7876 15 25.6357 15 23.3178C15 18.7179 19.5222 15 24.9923 15ZM24.9923 20.7768C23.1784 20.7768 21.6991 22.0478 21.6991 23.5768C21.6991 25.1177 23.1784 26.3297 24.9923 26.3297C26.8073 26.3297 28.3009 25.1177 28.3009 23.5768C28.3009 22.0478 26.8073 20.7768 24.9923 20.7768Z" fill="#22E41E"/>
</svg>
