<svg width="24" height="25" viewBox="0 0 24 25" fill="none" xmlns="http://www.w3.org/2000/svg">
<path d="M18 7.82537C17.94 7.81653 17.87 7.81653 17.81 7.82537C16.43 7.78119 15.33 6.78286 15.33 5.54598C15.33 4.28261 16.48 3.2666 17.91 3.2666C19.34 3.2666 20.49 4.29144 20.49 5.54598C20.48 6.78286 19.38 7.78119 18 7.82537Z" stroke="#9197B3" stroke-width="1.5" stroke-linecap="round" stroke-linejoin="round"/>
<path d="M16.97 14.2571C18.34 14.4603 19.85 14.2483 20.91 13.621C22.32 12.7905 22.32 11.43 20.91 10.5995C19.84 9.97223 18.31 9.76019 16.94 9.97223" stroke="#9197B3" stroke-width="1.5" stroke-linecap="round" stroke-linejoin="round"/>
<path d="M5.96998 7.82537C6.02998 7.81653 6.09998 7.81653 6.15998 7.82537C7.53998 7.78119 8.63998 6.78286 8.63998 5.54598C8.63998 4.28261 7.48998 3.2666 6.05998 3.2666C4.62998 3.2666 3.47998 4.29144 3.47998 5.54598C3.48998 6.78286 4.58998 7.78119 5.96998 7.82537Z" stroke="#9197B3" stroke-width="1.5" stroke-linecap="round" stroke-linejoin="round"/>
<path d="M7 14.2571C5.63 14.4603 4.12 14.2483 3.06 13.621C1.65 12.7905 1.65 11.43 3.06 10.5995C4.13 9.97223 5.66 9.76019 7.03 9.97223" stroke="#9197B3" stroke-width="1.5" stroke-linecap="round" stroke-linejoin="round"/>
<path d="M12 14.425C11.94 14.4161 11.87 14.4161 11.81 14.425C10.43 14.3808 9.32996 13.3825 9.32996 12.1456C9.32996 10.8822 10.48 9.86621 11.91 9.86621C13.34 9.86621 14.49 10.8911 14.49 12.1456C14.48 13.3825 13.38 14.3896 12 14.425Z" stroke="#9197B3" stroke-width="1.5" stroke-linecap="round" stroke-linejoin="round"/>
<path d="M9.08997 17.2082C7.67997 18.0387 7.67997 19.3993 9.08997 20.2297C10.69 21.1751 13.31 21.1751 14.91 20.2297C16.32 19.3993 16.32 18.0387 14.91 17.2082C13.32 16.2717 10.69 16.2717 9.08997 17.2082Z" stroke="#9197B3" stroke-width="1.5" stroke-linecap="round" stroke-linejoin="round"/>
</svg>
