<svg width="50" height="53" viewBox="0 0 50 53" fill="none" xmlns="http://www.w3.org/2000/svg">
<path d="M17.5 52.7984C16.125 52.7984 14.9475 52.281 13.9675 51.2461C12.9875 50.2113 12.4983 48.9688 12.5 47.5186V39.5988H5C3.625 39.5988 2.4475 39.0814 1.4675 38.0465C0.487504 37.0117 -0.00166242 35.7692 4.24448e-06 34.319V18.4795C4.24448e-06 17.0275 0.490004 15.7841 1.47 14.7492C2.45 13.7144 3.62667 13.1978 5 13.1996H12.5V5.27985C12.5 3.82789 12.99 2.58449 13.97 1.54964C14.95 0.514789 16.1267 -0.00175547 17.5 4.48204e-06H32.5C33.875 4.48204e-06 35.0525 0.517429 36.0325 1.55228C37.0125 2.58713 37.5017 3.82965 37.5 5.27985V13.1996H45C46.375 13.1996 47.5525 13.717 48.5325 14.7519C49.5125 15.7867 50.0017 17.0293 50 18.4795V34.319C50 35.7709 49.51 37.0143 48.53 38.0492C47.55 39.084 46.3733 39.6006 45 39.5988H37.5V47.5186C37.5 48.9705 37.01 50.2139 36.03 51.2488C35.05 52.2836 33.8733 52.8002 32.5 52.7984H17.5ZM5 23.7593H17.5C17.9167 23.7593 18.3125 23.8693 18.6875 24.0893C19.0625 24.3093 19.3542 24.5953 19.5625 24.9473L21.75 28.3792L25.125 17.6875C25.2917 17.1595 25.5933 16.7195 26.03 16.3675C26.4667 16.0155 26.9567 15.8395 27.5 15.8395C27.9167 15.8395 28.3125 15.9495 28.6875 16.1695C29.0625 16.3895 29.3542 16.6755 29.5625 17.0275L33.8125 23.7593H45V18.4795H35C34.2917 18.4795 33.6975 18.226 33.2175 17.7192C32.7375 17.2123 32.4983 16.5857 32.5 15.8395V5.27985H17.5V15.8395C17.5 16.5875 17.26 17.2149 16.78 17.7218C16.3 18.2287 15.7067 18.4812 15 18.4795H5V23.7593ZM5 29.0391V34.319H15C15.7083 34.319 16.3025 34.5724 16.7825 35.0793C17.2625 35.5861 17.5017 36.2127 17.5 36.9589V47.5186H32.5V36.9589C32.5 36.2109 32.74 35.5835 33.22 35.0766C33.7 34.5698 34.2933 34.3172 35 34.319H45V29.0391H32.5C32.0833 29.0391 31.6875 28.9291 31.3125 28.7091C30.9375 28.4891 30.625 28.2032 30.375 27.8512L28.25 24.4193L24.875 35.111C24.7083 35.6389 24.3958 36.0789 23.9375 36.4309C23.4792 36.7829 22.9792 36.9589 22.4375 36.9589C22.0208 36.9589 21.625 36.8489 21.25 36.6289C20.875 36.4089 20.5833 36.1229 20.375 35.7709L16.125 29.0391H5ZM4.24448e-06 29.0391H5V34.319H15C15.7083 34.319 16.3025 34.5724 16.7825 35.0793C17.2625 35.5861 17.5017 36.2127 17.5 36.9589V47.5186H32.5V36.9589C32.5 36.2109 32.74 35.5835 33.22 35.0766C33.7 34.5698 34.2933 34.3172 35 34.319H45V29.0391H50V23.7593H45V18.4795H35C34.2917 18.4795 33.6975 18.226 33.2175 17.7192C32.7375 17.2123 32.4983 16.5857 32.5 15.8395V5.27985H17.5V15.8395C17.5 16.5875 17.26 17.2149 16.78 17.7218C16.3 18.2287 15.7067 18.4812 15 18.4795H5V23.7593H4.24448e-06V29.0391Z" fill="#22E41E"/>
</svg>
