<svg width="50" height="50" viewBox="0 0 50 50" fill="none" xmlns="http://www.w3.org/2000/svg">
<path d="M17.5 50C16.125 50 14.9475 49.51 13.9675 48.53C12.9875 47.55 12.4983 46.3733 12.5 45V37.5H5C3.625 37.5 2.4475 37.01 1.4675 36.03C0.487504 35.05 -0.00166242 33.8733 4.24448e-06 32.5V17.5C4.24448e-06 16.125 0.490004 14.9475 1.47 13.9675C2.45 12.9875 3.62667 12.4983 5 12.5H12.5V5C12.5 3.625 12.99 2.4475 13.97 1.4675C14.95 0.487504 16.1267 -0.00166242 17.5 4.24448e-06H32.5C33.875 4.24448e-06 35.0525 0.490004 36.0325 1.47C37.0125 2.45 37.5017 3.62667 37.5 5V12.5H45C46.375 12.5 47.5525 12.99 48.5325 13.97C49.5125 14.95 50.0017 16.1267 50 17.5V32.5C50 33.875 49.51 35.0525 48.53 36.0325C47.55 37.0125 46.3733 37.5017 45 37.5H37.5V45C37.5 46.375 37.01 47.5525 36.03 48.5325C35.05 49.5125 33.8733 50.0017 32.5 50H17.5ZM5 22.5H17.5C17.9167 22.5 18.3125 22.6042 18.6875 22.8125C19.0625 23.0208 19.3542 23.2917 19.5625 23.625L21.75 26.875L25.125 16.75C25.2917 16.25 25.5933 15.8333 26.03 15.5C26.4667 15.1667 26.9567 15 27.5 15C27.9167 15 28.3125 15.1042 28.6875 15.3125C29.0625 15.5208 29.3542 15.7917 29.5625 16.125L33.8125 22.5H45V17.5H35C34.2917 17.5 33.6975 17.26 33.2175 16.78C32.7375 16.3 32.4983 15.7067 32.5 15V5H17.5V15C17.5 15.7083 17.26 16.3025 16.78 16.7825C16.3 17.2625 15.7067 17.5017 15 17.5H5V22.5ZM5 27.5V32.5H15C15.7083 32.5 16.3025 32.74 16.7825 33.22C17.2625 33.7 17.5017 34.2933 17.5 35V45H32.5V35C32.5 34.2917 32.74 33.6975 33.22 33.2175C33.7 32.7375 34.2933 32.4983 35 32.5H45V27.5H32.5C32.0833 27.5 31.6875 27.3958 31.3125 27.1875C30.9375 26.9792 30.625 26.7083 30.375 26.375L28.25 23.125L24.875 33.25C24.7083 33.75 24.3958 34.1667 23.9375 34.5C23.4792 34.8333 22.9792 35 22.4375 35C22.0208 35 21.625 34.8958 21.25 34.6875C20.875 34.4792 20.5833 34.2083 20.375 33.875L16.125 27.5H5ZM4.24448e-06 27.5H5V32.5H15C15.7083 32.5 16.3025 32.74 16.7825 33.22C17.2625 33.7 17.5017 34.2933 17.5 35V45H32.5V35C32.5 34.2917 32.74 33.6975 33.22 33.2175C33.7 32.7375 34.2933 32.4983 35 32.5H45V27.5H50V22.5H45V17.5H35C34.2917 17.5 33.6975 17.26 33.2175 16.78C32.7375 16.3 32.4983 15.7067 32.5 15V5H17.5V15C17.5 15.7083 17.26 16.3025 16.78 16.7825C16.3 17.2625 15.7067 17.5017 15 17.5H5V22.5H4.24448e-06V27.5Z" fill="#22E41E"/>
</svg>
