<svg width="48" height="48" viewBox="0 0 48 48" fill="none" xmlns="http://www.w3.org/2000/svg">
<path d="M16.8 48C15.48 48 14.3496 47.5296 13.4088 46.5888C12.468 45.648 11.9984 44.5184 12 43.2V36H4.8C3.48 36 2.3496 35.5296 1.4088 34.5888C0.468004 33.648 -0.00159593 32.5184 4.0747e-06 31.2V16.8C4.0747e-06 15.48 0.470404 14.3496 1.4112 13.4088C2.352 12.468 3.4816 11.9984 4.8 12H12V4.8C12 3.48 12.4704 2.3496 13.4112 1.4088C14.352 0.468004 15.4816 -0.00159593 16.8 4.0747e-06H31.2C32.52 4.0747e-06 33.6504 0.470404 34.5912 1.4112C35.532 2.352 36.0016 3.4816 36 4.8V12H43.2C44.52 12 45.6504 12.4704 46.5912 13.4112C47.532 14.352 48.0016 15.4816 48 16.8V31.2C48 32.52 47.5296 33.6504 46.5888 34.5912C45.648 35.532 44.5184 36.0016 43.2 36H36V43.2C36 44.52 35.5296 45.6504 34.5888 46.5912C33.648 47.532 32.5184 48.0016 31.2 48H16.8ZM4.8 21.6H16.8C17.2 21.6 17.58 21.7 17.94 21.9C18.3 22.1 18.58 22.36 18.78 22.68L20.88 25.8L24.12 16.08C24.28 15.6 24.5696 15.2 24.9888 14.88C25.408 14.56 25.8784 14.4 26.4 14.4C26.8 14.4 27.18 14.5 27.54 14.7C27.9 14.9 28.18 15.16 28.38 15.48L32.46 21.6H43.2V16.8H33.6C32.92 16.8 32.3496 16.5696 31.8888 16.1088C31.428 15.648 31.1984 15.0784 31.2 14.4V4.8H16.8V14.4C16.8 15.08 16.5696 15.6504 16.1088 16.1112C15.648 16.572 15.0784 16.8016 14.4 16.8H4.8V21.6ZM4.8 26.4V31.2H14.4C15.08 31.2 15.6504 31.4304 16.1112 31.8912C16.572 32.352 16.8016 32.9216 16.8 33.6V43.2H31.2V33.6C31.2 32.92 31.4304 32.3496 31.8912 31.8888C32.352 31.428 32.9216 31.1984 33.6 31.2H43.2V26.4H31.2C30.8 26.4 30.42 26.3 30.06 26.1C29.7 25.9 29.4 25.64 29.16 25.32L27.12 22.2L23.88 31.92C23.72 32.4 23.42 32.8 22.98 33.12C22.54 33.44 22.06 33.6 21.54 33.6C21.14 33.6 20.76 33.5 20.4 33.3C20.04 33.1 19.76 32.84 19.56 32.52L15.48 26.4H4.8ZM4.0747e-06 26.4H4.8V31.2H14.4C15.08 31.2 15.6504 31.4304 16.1112 31.8912C16.572 32.352 16.8016 32.9216 16.8 33.6V43.2H31.2V33.6C31.2 32.92 31.4304 32.3496 31.8912 31.8888C32.352 31.428 32.9216 31.1984 33.6 31.2H43.2V26.4H48V21.6H43.2V16.8H33.6C32.92 16.8 32.3496 16.5696 31.8888 16.1088C31.428 15.648 31.1984 15.0784 31.2 14.4V4.8H16.8V14.4C16.8 15.08 16.5696 15.6504 16.1088 16.1112C15.648 16.572 15.0784 16.8016 14.4 16.8H4.8V21.6H4.0747e-06V26.4Z" fill="#22E41E"/>
</svg>
