<svg width="30" height="30" viewBox="0 0 30 30" fill="none" xmlns="http://www.w3.org/2000/svg">
<path d="M15.0003 28.2875C14.1628 28.2875 13.3128 28.1 12.6503 27.7125L5.77529 23.75C2.97529 21.8625 2.80029 21.575 2.80029 18.6125V11.3875C2.80029 8.425 2.96279 8.1375 5.71279 6.275L12.6378 2.275C13.9503 1.5125 16.0128 1.5125 17.3253 2.275L24.2253 6.25C27.0253 8.1375 27.2003 8.425 27.2003 11.3875V18.6C27.2003 21.5625 27.0378 21.85 24.2878 23.7125L17.3628 27.7125C16.6878 28.1 15.8378 28.2875 15.0003 28.2875ZM15.0003 3.5875C14.4753 3.5875 13.9628 3.6875 13.6003 3.9L6.72529 7.875C4.68779 9.25 4.68779 9.25 4.68779 11.3875V18.6C4.68779 20.7375 4.68779 20.7375 6.77529 22.15L13.6003 26.0875C14.3378 26.5125 15.6753 26.5125 16.4128 26.0875L23.2878 22.1125C25.3128 20.7375 25.3128 20.7375 25.3128 18.6V11.3875C25.3128 9.25 25.3128 9.25 23.2253 7.8375L16.4003 3.9C16.0378 3.6875 15.5253 3.5875 15.0003 3.5875Z" fill="black"/>
<path d="M15 19.6875C12.4125 19.6875 10.3125 17.5875 10.3125 15C10.3125 12.4125 12.4125 10.3125 15 10.3125C17.5875 10.3125 19.6875 12.4125 19.6875 15C19.6875 17.5875 17.5875 19.6875 15 19.6875ZM15 12.1875C13.45 12.1875 12.1875 13.45 12.1875 15C12.1875 16.55 13.45 17.8125 15 17.8125C16.55 17.8125 17.8125 16.55 17.8125 15C17.8125 13.45 16.55 12.1875 15 12.1875Z" fill="black"/>
</svg>
